HIERARCHY
ROOT Pelvis
{
	OFFSET 0.000000 0.000000 0.000000
	CHANNELS 6 Xposition Yposition Zposition Xrotation Yrotation Zrotation
	JOINT LeftUpLeg_virtual
	{
		OFFSET 0.000000 0.000000 0.000000
		CHANNELS 3 Xrotation Yrotation Zrotation
		JOINT LeftUpLeg
		{
			OFFSET 18.735201 -5.666702 -4.541200
			CHANNELS 3 Xrotation Yrotation Zrotation
			JOINT LeftLeg
			{
				OFFSET -0.021200 -31.938179 0.493100
				CHANNELS 3 Xrotation Yrotation Zrotation
				JOINT LeftFoot
				{
					OFFSET 0.021200 -31.938179 -4.336299
					CHANNELS 3 Xrotation Yrotation Zrotation
					JOINT LeftToeBase
					{
						OFFSET 0.943001 -26.722000 15.023500
						CHANNELS 3 Xrotation Yrotation Zrotation
						End Site
						{
							OFFSET 0 0 0
						}
					}
				}
			}
		}
	}
	JOINT RightUpLeg_virtual
	{
		OFFSET 0.000000 0.000000 0.000000
		CHANNELS 3 Xrotation Yrotation Zrotation
		JOINT RightUpLeg
		{
			OFFSET -18.735201 -5.666702 -4.541200
			CHANNELS 3 Xrotation Yrotation Zrotation
			JOINT RightLeg
			{
				OFFSET 0.018946 -31.938133 0.493100
				CHANNELS 3 Xrotation Yrotation Zrotation
				JOINT RightFoot
				{
					OFFSET -0.018946 -31.938126 -4.336299
					CHANNELS 3 Xrotation Yrotation Zrotation
					JOINT RightToeBase
					{
						OFFSET -0.943001 -26.722004 15.023500
						CHANNELS 3 Xrotation Yrotation Zrotation
						End Site
						{
							OFFSET 0 0 0
						}
					}
				}
			}
		}
	}
	JOINT Hips_virtual
	{
		OFFSET 0.000000 0.000000 0.000000
		CHANNELS 3 Xrotation Yrotation Zrotation
		JOINT Hips
		{
			OFFSET -0.000000 -0.000000 -0.000000
			CHANNELS 3 Xrotation Yrotation Zrotation
			JOINT Spine
			{
				OFFSET 0.000000 10.199997 -0.299500
				CHANNELS 3 Xrotation Yrotation Zrotation
				JOINT Spine1
				{
					OFFSET 0.000000 11.900002 -1.516600
					CHANNELS 3 Xrotation Yrotation Zrotation
					JOINT Spine2
					{
						OFFSET 0.000000 13.600006 -2.842500
						CHANNELS 3 Xrotation Yrotation Zrotation
						JOINT Neck_virtual
						{
							OFFSET 0.000000 0.000000 0.000000
							CHANNELS 3 Xrotation Yrotation Zrotation
							JOINT Neck
							{
								OFFSET 0.000000 9.624100 -2.890100
								CHANNELS 3 Xrotation Yrotation Zrotation
								JOINT Head
								{
									OFFSET 0.000000 14.068802 -1.351900
									CHANNELS 3 Xrotation Yrotation Zrotation
									End Site
									{
										OFFSET 0 0 0
									}
								}
							}
						}
						JOINT LeftShoulder_virtual
						{
							OFFSET 0.000000 0.000000 0.000000
							CHANNELS 3 Xrotation Yrotation Zrotation
							JOINT LeftShoulder
							{
								OFFSET 15.263000 10.923401 -0.547700
								CHANNELS 3 Xrotation Yrotation Zrotation
								JOINT LeftArm
								{
									OFFSET 25.438599 -2.830597 -13.032500
									CHANNELS 3 Xrotation Yrotation Zrotation
									JOINT LeftForeArm
									{
										OFFSET 29.960503 0.000000 0.000000
										CHANNELS 3 Xrotation Yrotation Zrotation
										JOINT LeftHand
										{
											OFFSET 27.849251 0.000000 0.000000
											CHANNELS 3 Xrotation Yrotation Zrotation
											End Site
											{
												OFFSET 0 0 0
											}
										}
									}
								}
							}
						}
						JOINT RightShoulder_virtual
						{
							OFFSET 0.000000 0.000000 0.000000
							CHANNELS 3 Xrotation Yrotation Zrotation
							JOINT RightShoulder
							{
								OFFSET -15.263000 10.923401 -0.547700
								CHANNELS 3 Xrotation Yrotation Zrotation
								JOINT RightArm
								{
									OFFSET -25.438599 -2.830597 -13.032500
									CHANNELS 3 Xrotation Yrotation Zrotation
									JOINT RightForeArm
									{
										OFFSET -29.960503 0.000000 0.000000
										CHANNELS 3 Xrotation Yrotation Zrotation
										JOINT RightHand
										{
											OFFSET -27.849251 0.000000 0.000000
											CHANNELS 3 Xrotation Yrotation Zrotation
											End Site
											{
												OFFSET 0 0 0
											}
										}
									}
								}
							}
						}
					}
				}
			}
		}
	}
}
MOTION
Frames: 13
Frame Time: 0.03333333
4.200295 72.839165 132.900299 0.000000 0.000000 0.000000 24.886549 -1.245037 3.658405 -6.973361 14.008533 19.148948 28.457881 4.508675 -9.648914 -20.727838 9.335432 -16.450217 0.000000 0.000000 0.000000 -21.742335 -22.917556 0.810883 -61.140507 -6.853384 -14.535168 63.906392 5.378948 -8.911296 7.967027 8.788695 1.637331 0.000000 0.000000 0.000000 8.581827 -8.091502 4.237226 7.792524 2.861129 0.859597 6.225581 -9.564957 1.655808 4.687342 -5.987404 -0.246199 0.000000 0.000000 0.000000 5.064197 -4.748882 3.172788 0.677722 -1.678666 1.523667 0.000000 0.000000 0.000000 4.595106 -6.256111 -0.786037 -1.857142 -24.311514 -7.406676 -57.737023 -15.106656 -21.639631 -15.243466 -54.195604 -0.783737 0.000000 0.000000 0.000000 3.743563 -6.101800 0.830574 1.266242 -15.075098 2.098895 37.131200 6.138579 1.286881 28.575106 54.347849 -26.126107 0.000000 0.000000 0.000000 
4.377544 72.689957 134.254379 0.000000 0.000000 0.000000 23.979315 1.209457 2.974093 -8.123872 14.497498 19.099801 29.678671 4.878909 -9.452768 -19.690370 9.576444 -16.101596 0.000000 0.000000 0.000000 -22.200569 -23.381438 0.542905 -61.614453 -6.839861 -14.684299 63.281457 5.537530 -8.741168 6.997665 8.744350 2.088860 0.000000 0.000000 0.000000 7.364711 -9.404154 3.986977 8.490980 6.112359 -0.206587 6.136962 -11.540413 2.220241 4.698847 -7.023551 0.114163 0.000000 0.000000 0.000000 4.772073 -5.759461 3.644552 0.713368 -1.841579 1.757102 0.000000 0.000000 0.000000 4.680832 -7.686672 -0.500248 -2.107656 -27.323892 -6.945499 -54.553039 -15.947751 -23.157613 -12.862923 -52.121604 -0.654828 0.000000 0.000000 0.000000 3.474314 -7.280276 1.422264 1.362624 -18.212168 3.317188 33.947656 -0.453923 3.974071 23.394520 50.543120 -21.411707 0.000000 0.000000 0.000000 
4.320385 72.849823 136.225433 0.000000 0.000000 0.000000 23.121765 3.295506 2.169065 -9.381510 14.935503 18.829162 31.712353 5.231807 -9.370944 -18.110033 9.827869 -15.870499 0.000000 0.000000 0.000000 -21.844996 -22.952356 0.876235 -61.296973 -6.869093 -14.493532 62.592851 5.827947 -8.566074 5.881655 8.806101 2.682223 0.000000 0.000000 0.000000 5.998944 -10.886685 3.686451 8.597817 8.112647 -1.021636 6.210055 -13.309983 2.519379 4.787408 -7.949462 0.327524 0.000000 0.000000 0.000000 4.468744 -6.597742 4.037471 0.722461 -1.950764 1.959359 0.000000 0.000000 0.000000 4.797412 -8.932430 -0.264749 -2.293045 -29.885230 -6.479072 -51.511057 -16.634921 -24.767265 -10.941073 -50.530737 -0.924623 0.000000 0.000000 0.000000 3.333811 -8.271313 1.957056 1.546228 -20.882842 4.278606 31.440194 -5.352890 6.552462 20.145387 48.628228 -18.312115 0.000000 0.000000 0.000000 
4.235244 72.949280 138.547302 0.000000 0.000000 0.000000 22.477978 4.448704 1.362581 -10.472915 15.207893 18.321129 35.018663 5.324294 -9.468167 -15.603852 9.897685 -15.983222 0.000000 0.000000 0.000000 -20.842951 -22.460155 1.263998 -60.247815 -6.976306 -14.310316 62.154196 5.926925 -8.452928 5.094183 8.733930 2.984539 0.000000 0.000000 0.000000 4.768941 -12.577540 3.501308 8.928838 8.588552 -0.561389 6.430272 -14.808699 2.692588 4.952051 -8.735282 0.482031 0.000000 0.000000 0.000000 4.148374 -7.181435 4.287187 0.727097 -1.946085 2.095079 0.000000 0.000000 0.000000 4.930304 -9.958772 -0.125673 -2.505919 -31.991732 -6.222427 -49.452380 -17.159081 -26.501534 -9.669650 -49.362662 -1.590541 0.000000 0.000000 0.000000 3.364030 -8.942719 2.496144 1.899263 -22.503585 5.278429 29.453487 -9.039813 8.723861 17.829034 47.825073 -15.974493 0.000000 0.000000 0.000000 
4.073067 73.179184 140.692932 0.000000 0.000000 0.000000 22.110132 5.052822 0.415498 -11.220828 15.449232 17.497854 39.313640 5.361569 -9.340287 -12.281337 9.789143 -15.804411 0.000000 0.000000 0.000000 -19.108101 -21.596204 2.075327 -58.439385 -7.213949 -13.873612 62.048116 6.000462 -8.357043 4.606091 8.676242 3.253561 0.000000 0.000000 0.000000 3.644066 -14.677182 3.303244 9.164592 7.615040 -0.104341 6.602854 -15.893963 2.767456 5.071211 -9.297180 0.586113 0.000000 0.000000 0.000000 3.805962 -7.633170 4.445711 0.702534 -1.927076 2.184948 0.000000 0.000000 0.000000 4.975606 -10.759261 -0.025863 -2.758652 -33.598998 -5.997846 -48.049599 -17.670878 -27.987424 -8.804020 -48.758186 -2.391909 0.000000 0.000000 0.000000 3.376426 -9.395256 2.923826 2.125485 -23.551711 5.771315 27.875453 -11.723233 10.262996 15.891682 47.310289 -13.929636 0.000000 0.000000 0.000000 
3.809680 73.231529 142.995407 0.000000 0.000000 0.000000 21.680528 4.177741 -0.470843 -11.970766 15.316272 16.368171 44.087283 5.294315 -8.782397 -8.457279 9.369590 -15.077777 0.000000 0.000000 0.000000 -16.900642 -20.097261 3.180773 -56.039462 -7.451515 -13.189865 62.061749 6.158649 -8.240144 4.259275 8.712266 3.630234 0.000000 0.000000 0.000000 2.552007 -16.978845 2.974178 9.173073 5.608315 -0.150800 6.622179 -16.593197 2.702120 5.117983 -9.653828 0.614399 0.000000 0.000000 0.000000 3.480117 -7.863546 4.547273 0.660889 -1.849530 2.273367 0.000000 0.000000 0.000000 4.980874 -11.350622 -0.044643 -3.118322 -34.748184 -6.180167 -46.645483 -17.755690 -29.596825 -8.127321 -48.375839 -3.302391 0.000000 0.000000 0.000000 3.388553 -9.700135 3.194542 2.194647 -24.385987 5.742084 26.211525 -13.850655 11.139200 14.171005 46.917925 -12.167149 0.000000 0.000000 0.000000 
3.584079 73.219948 145.434143 0.000000 0.000000 0.000000 20.611508 1.364320 -0.664118 -13.715260 14.472488 15.711530 48.492448 5.262634 -7.769231 -4.874648 8.760999 -13.637046 0.000000 0.000000 0.000000 -14.431006 -18.359101 4.289922 -53.195593 -7.678108 -12.425522 62.024722 6.351706 -8.148698 3.905376 8.795877 3.986641 0.000000 0.000000 0.000000 1.428381 -19.149960 2.527322 8.816720 3.530091 -0.659381 6.351798 -16.997088 2.567388 5.000437 -9.845639 0.612731 0.000000 0.000000 0.000000 3.069342 -7.886518 4.552233 0.570634 -1.685080 2.328060 0.000000 0.000000 0.000000 4.819494 -11.718942 -0.148487 -3.618296 -35.401472 -6.433298 -45.928524 -17.701269 -31.452003 -7.866846 -48.361086 -4.440183 0.000000 0.000000 0.000000 3.386949 -9.856070 3.385530 2.194856 -24.847059 5.585246 24.421338 -15.064865 11.593607 12.802421 47.387839 -10.781729 0.000000 0.000000 0.000000 
3.238753 72.979988 147.791168 0.000000 0.000000 0.000000 19.296314 -2.173850 -0.208271 -16.090708 13.297531 15.817210 52.592279 5.131819 -6.512337 -1.572512 7.932337 -11.849974 0.000000 0.000000 0.000000 -11.688565 -16.389498 5.310153 -49.876900 -7.855381 -11.665270 61.957466 6.623885 -8.045036 3.509179 8.943110 4.436665 0.000000 0.000000 0.000000 0.490526 -21.397864 2.156431 8.838123 1.225489 -0.938695 6.003108 -17.223488 2.439641 4.826671 -9.939644 0.615460 0.000000 0.000000 0.000000 2.482225 -7.816906 4.522189 0.380529 -1.486181 2.372220 0.000000 0.000000 0.000000 4.597786 -11.956727 -0.295754 -4.170226 -35.743616 -6.672093 -45.775484 -17.662548 -33.163799 -7.892659 -48.446983 -5.592774 0.000000 0.000000 0.000000 3.322601 -9.911107 3.502042 2.028839 -24.882427 5.269423 21.940632 -15.828415 11.543367 11.346320 48.106323 -9.510408 0.000000 0.000000 0.000000 
2.559957 72.766304 150.611847 0.000000 0.000000 0.000000 18.033629 -5.142937 0.665168 -18.572070 12.160326 16.605552 56.491098 5.469974 -4.897548 1.647371 7.384873 -9.144476 0.000000 0.000000 0.000000 -9.039703 -14.615328 5.965326 -46.432794 -7.969279 -11.069504 61.613286 6.912595 -7.957008 2.951994 9.096752 4.841136 0.000000 0.000000 0.000000 -0.319431 -23.200421 1.872279 8.916878 -0.408968 -0.893925 5.590503 -17.186223 2.316283 4.585076 -9.888756 0.621850 0.000000 0.000000 0.000000 1.830120 -7.640216 4.499949 0.154685 -1.255616 2.426024 0.000000 0.000000 0.000000 4.409427 -12.030915 -0.451730 -4.625870 -35.550288 -6.835291 -45.940867 -17.529745 -34.695063 -8.063831 -48.694611 -6.708667 0.000000 0.000000 0.000000 3.211926 -9.872619 3.586278 1.767603 -24.527845 4.891249 18.674531 -16.383816 11.072469 9.675575 48.835265 -8.239321 0.000000 0.000000 0.000000 
1.612551 72.699959 153.937485 0.000000 0.000000 0.000000 16.706501 -7.375166 0.952403 -20.704863 11.271276 16.772264 59.609124 5.865893 -3.390875 4.470034 6.991750 -6.514835 0.000000 0.000000 0.000000 -6.601194 -13.168773 6.412772 -43.066276 -8.085787 -10.532223 61.021060 7.213719 -7.795729 2.229554 9.202282 5.343327 0.000000 0.000000 0.000000 -1.048549 -24.620018 1.580263 8.753784 -1.408081 -1.121801 5.144845 -16.951536 2.236740 4.285427 -9.725509 0.649809 0.000000 0.000000 0.000000 1.186902 -7.376905 4.517356 -0.081503 -1.006876 2.502181 0.000000 0.000000 0.000000 4.220307 -11.978014 -0.570434 -4.953113 -34.961327 -6.736488 -46.343971 -17.419928 -35.745276 -8.336132 -49.022416 -7.649206 0.000000 0.000000 0.000000 3.050688 -9.755986 3.645831 1.413732 -23.872196 4.444922 14.893791 -16.667219 10.219282 7.914841 49.650708 -7.031383 0.000000 0.000000 0.000000 
0.778735 72.783592 157.049805 0.000000 0.000000 0.000000 15.103380 -8.857462 1.240961 -22.927296 10.446704 17.047819 62.011315 6.547867 -1.816358 6.986888 6.916804 -3.503140 0.000000 0.000000 0.000000 -4.278756 -11.908988 6.627434 -39.687941 -8.161374 -10.125238 60.188836 7.532307 -7.638456 1.328810 9.300956 5.829251 0.000000 0.000000 0.000000 -1.710181 -25.843836 1.259233 8.433412 -2.331457 -1.678732 4.772055 -16.494405 2.132423 4.003190 -9.431287 0.651036 0.000000 0.000000 0.000000 0.648582 -7.080323 4.456812 -0.267223 -0.780890 2.537068 0.000000 0.000000 0.000000 4.004311 -11.814306 -0.697563 -5.234501 -34.106833 -6.609478 -46.995502 -17.373071 -36.519628 -8.736988 -49.579588 -8.497753 0.000000 0.000000 0.000000 2.775694 -9.571000 3.681412 0.961064 -23.014877 4.024740 10.412798 -16.640320 9.279839 5.903338 50.481792 -5.682391 0.000000 0.000000 0.000000 
0.115705 73.286125 159.999969 0.000000 0.000000 0.000000 13.041293 -9.361900 1.934988 -25.518304 9.559218 17.917669 62.804327 7.575575 -0.165135 8.305458 7.250428 -0.072721 0.000000 0.000000 0.000000 -2.113078 -10.671580 6.735850 -36.378441 -8.187416 -9.749066 59.254261 7.892123 -7.433591 0.368907 9.404778 6.407747 0.000000 0.000000 0.000000 -2.366632 -27.113990 0.928695 7.698448 -3.421954 -2.419427 4.493569 -15.913057 1.971225 3.768963 -9.066811 0.616660 0.000000 0.000000 0.000000 0.212341 -6.720723 4.335114 -0.410485 -0.544243 2.546833 0.000000 0.000000 0.000000 3.774885 -11.572068 -0.840112 -5.477733 -33.068084 -6.537834 -47.812257 -17.613991 -37.248556 -9.213415 -50.583387 -9.251184 0.000000 0.000000 0.000000 2.467506 -9.341848 3.654252 0.491808 -22.013037 3.513578 5.497386 -16.298127 8.145395 3.752428 51.292607 -4.306142 0.000000 0.000000 0.000000 
-0.401159 74.133278 162.571564 0.000000 0.000000 0.000000 11.149703 -10.216927 2.902455 -28.025403 8.525633 19.032754 63.507864 8.680752 1.446139 9.336523 7.707857 3.429099 0.000000 0.000000 0.000000 -0.102377 -9.465990 6.688578 -33.194412 -8.148001 -9.495209 58.310855 8.214623 -7.224849 -0.594291 9.462337 6.953766 0.000000 0.000000 0.000000 -2.903700 -28.102989 0.635610 6.903773 -4.214050 -3.167363 4.297878 -15.252863 1.807838 3.573234 -8.655975 0.575466 0.000000 0.000000 0.000000 -0.093453 -6.344123 4.215200 -0.506354 -0.323633 2.557842 0.000000 0.000000 0.000000 3.635622 -11.257596 -0.942229 -5.505652 -31.886342 -6.252262 -48.506129 -18.327476 -37.736215 -9.595631 -52.011846 -9.781597 0.000000 0.000000 0.000000 2.235328 -9.058098 3.551522 0.103340 -20.816584 2.784102 0.450821 -15.155230 6.744094 1.647254 52.579008 -3.065109 0.000000 0.000000 0.000000 
